<?xml version="1.0" encoding="utf-8"?>
<svg viewBox="0 0 618.1 298" width="618.1" height="298" xmlns="http://www.w3.org/2000/svg">
  <path d="M 0 0 L 618 0 L 618 298 L 0 298 L 0 0 Z" fill="#cbebf8"/>
  <path d="M215.6 236.9l161.5-131.6c12-8.46 10-12.76 36 9.3l178 159.7z" fill="#878888"/>
  <path d="M389.1 98.44c-4 .3-7 3.16-12 6.86-12 8.5-161.5 131.6-161.5 131.6l173.5 17.3V98.44z" fill="#7d7e7e"/>
  <path d="M389.1 98.44c-4 .3-7 3.16-12 6.86-2 1.7-11 8.4-22 17.6 0 3.4 0 6.7 1 8.3 3 4.1 17-3.8 17-3.8s2 10.6 16 10.6c11 0 12-13.6 12-13.6s19 12.3 25 5.9c1-.8 1-1.9 1-3.3-7-5.4-11-9.7-14-12.4-14-12.4-20-16.46-24-16.16z" fill="#fff" fill-opacity=".945"/>
  <path d="M389.1 98.44c-4 .3-7 3.16-12 6.86-2 1.7-11 8.4-22 17.6 0 3.4 0 6.7 1 8.3 3 4.1 17-3.8 17-3.8s2 10.6 16 10.6h1V98.44h-1z" fill="#f2f2f2" fill-opacity=".56"/>
  <path d="M204.2 67.67c-4.2.3-7.5 3.86-13.9 8.44C176.3 86.12 15.7 222.4 1.5 234.1v4.5l451.6 45.6L234.2 87.61c-17.6-15.3-24.6-20.32-30-19.94z" fill="#878888"/>
  <path d="M204.1 67.67c-4.2.3-7.4 3.86-13.8 8.44C176.9 85.72 25.3 209.7 0 230.4v8.6l204.9 20.4V67.67h-.8z" fill="#7d7e7e"/>
  <path d="M204.1 67.67c-4.2.3-7.4 3.86-13.8 8.44-3 2.13-13.3 10.33-27.4 21.72-.4 4.07-.3 8.17 1.3 10.17 3.9 5 20.9-4.7 20.9-4.7s2.1 13 19.9 13c13.5 0 14.1-16.66 14.1-16.66s24.6 15.16 31 7.26c1-1 2-2.4 1-4.1-7.1-6.61-13.2-11.97-16.9-15.19-17.6-15.3-24.7-20.32-30.1-19.94z" fill="#fff" fill-opacity=".945"/>
  <path d="M204.1 67.67c-4.2.3-7.4 3.86-13.8 8.44-3 2.13-13.3 10.33-27.4 21.72-.4 4.07-.3 8.17 1.3 10.17 3.9 5 20.9-4.7 20.9-4.7s2.1 13 19.9 13h.1V67.67h-1z" fill="#f2f2f2" fill-opacity=".56"/>
  <path d="M468.1 46.695c-4.269 10.359-15.96 15.496-26.477 11.633s-16.105-15.344-12.656-26.004 14.705-16.691 25.491-13.659 17.251 14.044 14.641 24.94" fill="#ece479"/>
  <path d="M618.1 203.8c-6 .7-12 1.6-19 2.8-33 6-134 33.8-202 38.8-67 4.9-189.4-28.8-248-30.8C90.41 212.6 1 227.5 1 227.5l-1 .9v69.5h618.1v-94.1z" fill="#b6d8cb"/>
  <text style="fill: rgb(51, 51, 51); font-family: Arial, sans-serif; font-size: 150px; font-weight: 700; text-anchor: middle; white-space: pre; transform-origin: 336.968px 162.96px;" transform="matrix(1.203166007996, 0, 0, 1.264649987221, -27.967659832531, -14.95970295607)" x="173.407" y="85.933" dx="158.066" dy="124.376">CNN</text>
</svg>
